<svg xmlns="http://www.w3.org/2000/svg" xmlns:xlink="http://www.w3.org/1999/xlink" fill="none" version="1.1" width="20" height="20" viewBox="0 0 20 20">
  <defs>
    <clipPath id="master_svg0_1_1690_open">
      <rect x="0" y="0" width="20" height="20" rx="0"/>
    </clipPath>
  </defs>
  <g clipPath="url(#master_svg0_1_1690_open)">
    <g>
      <path d="M18.834348046875,10.37378Q14.915848046875,15.625,10.000078046875,15.625Q5.084258046875,15.625,1.1658340468750001,10.37378Q1.1054120468750002,10.2928,1.073580046875,10.19692Q1.041748046875,10.10103,1.041748046875,10Q1.041748046875,9.89897,1.073580046875,9.80308Q1.1054120468750002,9.7072,1.1658340468750001,9.62622Q5.084258046875,4.375,10.000078046875,4.375Q14.915848046875,4.375,18.834348046875,9.62622Q18.894748046875,9.7072,18.926548046875,9.80308Q18.958448046875,9.89897,18.958448046875,10Q18.958448046875,10.10103,18.926548046875,10.19692Q18.894748046875,10.29281,18.834348046875,10.37378ZM17.543348046875,9.995809999999999Q14.114748046875,5.625,10.000078046875,5.625Q5.885378046875,5.625,2.456771046875,10.00418Q5.885378046875,14.375,10.000078046875,14.375Q14.114748046875,14.375,17.543348046875,9.995809999999999Z" fillRule="evenodd" fill="#7C7C84" fillOpacity="1"/>
    </g>
    <g>
      <path d="M10.000078046875,12.708338862304688Q11.121898046875,12.708338862304687,11.915158046875,11.915078862304687Q12.708418046875,11.121818862304687,12.708418046875,9.999998862304688Q12.708418046875,8.878178862304687,11.915158046875,8.084918862304687Q11.121898046875,7.291658862304687,10.000078046875,7.291658862304687Q8.878258046875,7.291658862304687,8.084998046875,8.084918862304687Q7.291738046875,8.878178862304687,7.291738046875,9.999998862304688Q7.291738046875,11.121818862304687,8.084998046875,11.915078862304687Q8.878258046875,12.708338862304688,10.000078046875,12.708338862304688ZM10.000078046875,11.458338862304688Q9.396028046875,11.458338862304688,8.968888046875,11.031198862304688Q8.541748046875,10.604058862304687,8.541748046875,9.999998862304688Q8.541748046875,9.395938862304687,8.968888046875,8.968798862304687Q9.396028046875,8.541658862304687,10.000078046875,8.541658862304687Q10.604128046875,8.541658862304687,11.031268046875,8.968798862304687Q11.458408046875,9.395938862304687,11.458408046875,9.999998862304688Q11.458408046875,10.604058862304687,11.031268046875,11.031198862304688Q10.604128046875,11.458338862304688,10.000078046875,11.458338862304688Z" fillRule="evenodd" fill="#7C7C84" fillOpacity="1"/>
    </g>
  </g>
</svg>
